<?xml version="1.0" standalone="no"?><!DOCTYPE svg PUBLIC "-//W3C//DTD SVG 1.1//EN" "http://www.w3.org/Graphics/SVG/1.1/DTD/svg11.dtd"><svg t="1610778094830" class="icon" viewBox="0 0 1024 1024" version="1.1" xmlns="http://www.w3.org/2000/svg" p-id="7965" xmlns:xlink="http://www.w3.org/1999/xlink" width="200" height="200"><defs><style type="text/css"></style></defs><path d="M492.586667 398.762667c0 24.917333-9.984 48.768-27.818667 66.346666a95.744 95.744 0 0 1-67.242667 27.477334H180.437333a95.744 95.744 0 0 1-67.285333-27.477334A93.141333 93.141333 0 0 1 85.333333 398.762667V179.114667C85.333333 127.317333 127.914667 85.333333 180.437333 85.333333h217.088c25.173333 0 49.408 9.898667 67.242667 27.477334 17.834667 17.578667 27.818667 41.429333 27.818667 66.304v219.648zM492.586667 846.805333c0 51.797333-42.538667 93.781333-95.061334 93.781334H180.437333C127.914667 940.586667 85.333333 898.602667 85.333333 846.805333V627.2c0-51.797333 42.581333-93.824 95.104-93.824h217.088c52.48 0 95.061333 42.026667 95.061334 93.824v219.648zM940.586667 398.762667c0 51.84-42.538667 93.824-95.061334 93.866666h-217.088a95.744 95.744 0 0 1-67.285333-27.52 93.141333 93.141333 0 0 1-27.818667-66.346666V179.114667C533.333333 127.317333 575.914667 85.333333 628.437333 85.333333h217.088c25.173333 0 49.408 9.898667 67.242667 27.477334 17.834667 17.578667 27.818667 41.429333 27.818667 66.304v219.648zM533.333333 736.981333a203.648 203.648 0 1 1 407.253334 0 203.648 203.648 0 0 1-407.253334 0z m67.84 0a135.765333 135.765333 0 1 0 271.573334 0 135.765333 135.765333 0 0 0-271.530667 0z" fill="#FC4141" p-id="7966"></path><path d="M968.704 907.818667a43.093333 43.093333 0 0 1-60.885333 60.885333l-76.8-76.8a42.965333 42.965333 0 1 1 60.885333-60.842667l76.8 76.8z" fill="#FC4141" p-id="7967"></path></svg>